<svg>
  <symbol fill="none" xmlns="http://www.w3.org/2000/svg" viewBox="0 0 9 5" id="Group">
    <path d="M4.74697 4.75808L8.89822 0.595312C9.03416 0.458924 9.03393 0.238108 8.89752 0.101949C8.76113 -0.0341054 8.5402 -0.0337538 8.40416 0.102652L4.49998 4.01764L0.595828 0.102511C0.459774 -0.0338773 0.238976 -0.0342289 0.102571 0.101808C0.0341921 0.170063 1.89601e-06 0.259483 1.8921e-06 0.348903C1.8882e-06 0.438094 0.0339632 0.527162 0.101867 0.595294L4.25301 4.75808C4.31837 4.82377 4.40731 4.86063 4.49998 4.86063C4.59266 4.86063 4.68149 4.82366 4.74697 4.75808Z" fill="#0090FF"></path>
  </symbol>
  <symbol fill="none" xmlns="http://www.w3.org/2000/svg" viewBox="0 0 9 5" id="Group-down">
    <path d="M4.74697 4.75808L8.89822 0.595312C9.03416 0.458924 9.03393 0.238108 8.89752 0.101949C8.76113 -0.0341054 8.5402 -0.0337538 8.40416 0.102652L4.49998 4.01764L0.595828 0.102511C0.459774 -0.0338773 0.238976 -0.0342289 0.102571 0.101808C0.0341921 0.170063 1.89601e-06 0.259483 1.8921e-06 0.348903C1.8882e-06 0.438094 0.0339632 0.527162 0.101867 0.595294L4.25301 4.75808C4.31837 4.82377 4.40731 4.86063 4.49998 4.86063C4.59266 4.86063 4.68149 4.82366 4.74697 4.75808Z" fill="#787878"></path>
  </symbol>
  <symbol fill="none" xmlns="http://www.w3.org/2000/svg" viewBox="0 0 13 14" id="Vector2">
    <path d="M1.08333 6.72V14H11.9167V6.72H13L6.5 0L0 6.72H1.08333Z" fill="#656565"></path>
  </symbol>
</svg>