<svg>
  <symbol fill="none" xmlns="http://www.w3.org/2000/svg" viewBox="0 0 27 25" id="bed">
    <path d="M4.37579 23.52V22.3358H22.6242L22.6242 23.52L22.6242 23.5232C22.6268 23.7233 22.7147 23.91 22.8616 24.0443C23.0078 24.178 23.2014 24.25 23.3994 24.25H25.4811C25.679 24.25 25.8724 24.1774 26.0178 24.0429C26.1639 23.9078 26.25 23.7201 26.25 23.52V17.7714H26.2501L26.2499 17.7659C26.2444 17.5171 26.1803 17.2732 26.063 17.0514C25.9648 16.8658 25.8317 16.6998 25.6711 16.5608C25.6704 16.5571 25.6697 16.5534 25.6689 16.5497L25.6614 16.5137L25.6439 16.4814L21.0425 8.00802L21.0425 2.44007L21.0425 2.43898C21.0405 1.98386 20.8435 1.55235 20.5019 1.23757C20.1609 0.923398 19.7031 0.749996 19.2296 0.75H7.74513C7.27157 0.749996 6.8138 0.923398 6.47282 1.23757C6.1312 1.55235 5.93423 1.98386 5.93223 2.43898V2.44007V8.00802L1.3308 16.4814L1.3038 16.5311L1.30175 16.5703C1.14541 16.7098 1.01659 16.8756 0.922708 17.0603C0.810192 17.2816 0.750935 17.5241 0.75 17.7705V17.7714L0.749979 23.52L0.750021 23.5232C0.752627 23.7233 0.840485 23.91 0.98738 24.0443C1.13364 24.178 1.32715 24.25 1.5252 24.25H3.60694C3.80485 24.25 3.99819 24.1774 4.1436 24.0429C4.28967 23.9078 4.37579 23.7201 4.37579 23.52ZM15.4341 4.58433H15.4331L11.5543 4.58433L11.5528 4.58434C10.9037 4.58834 10.2736 4.7986 9.76824 5.18311C9.2626 5.56788 8.91153 6.1049 8.77914 6.7065C8.77913 6.70651 8.77913 6.70652 8.77913 6.70653L8.61354 7.45858H7.51245L7.47628 2.44007C7.47628 2.43984 7.47628 2.43961 7.47628 2.43937C7.47648 2.38514 7.49969 2.32887 7.54802 2.28415C7.59722 2.23864 7.66782 2.21005 7.74513 2.21005H19.2043C19.2816 2.21005 19.3522 2.23864 19.4014 2.28415L19.5711 2.10064L19.4014 2.28416C19.4499 2.32906 19.4731 2.38562 19.4731 2.44007V7.45858H18.3738L18.2083 6.70705C18.2083 6.70699 18.2083 6.70694 18.2083 6.70689C18.0771 6.10463 17.7263 5.56682 17.2203 5.18179C16.7146 4.79699 16.0837 4.58715 15.4341 4.58433ZM15.6244 9.37282H15.6229L11.3265 9.37282L11.326 9.37282C11.1301 9.37321 10.9371 9.33342 10.761 9.25691C10.585 9.18041 10.431 9.06948 10.3095 8.93332C10.188 8.79724 10.1018 8.63934 10.0557 8.47145C10.0096 8.30389 10.0042 8.12935 10.0397 7.95985C10.0398 7.9596 10.0398 7.95935 10.0399 7.9591L10.2483 7.00072L10.2486 6.99972C10.3058 6.73143 10.4627 6.4856 10.6978 6.30652C10.9334 6.12719 11.2316 6.02716 11.5419 6.0268L15.4136 6.0268C15.4137 6.0268 15.4138 6.0268 15.4139 6.0268C15.7232 6.02742 16.0204 6.12756 16.2548 6.30676C16.4889 6.48574 16.6446 6.73123 16.7006 6.99885L16.701 7.00072L16.9099 7.96076L16.91 7.96127C16.9472 8.13065 16.943 8.30545 16.8976 8.47332C16.8523 8.64115 16.7666 8.79904 16.6452 8.93501C16.523 9.07136 16.3684 9.18228 16.1915 9.25851C16.0147 9.33475 15.8209 9.37401 15.6244 9.37282ZM9.12701 9.87033L9.12747 9.87084L11.3328 10.5829V10.8329H11.3331H15.6222C16.0414 10.8351 16.4563 10.7503 16.8367 10.5843C17.2174 10.4182 17.5546 10.1746 17.8227 9.86996L17.8229 9.86969C18.0685 9.58988 18.2508 9.26634 18.3585 8.91863H19.8085L23.7004 16.0814H3.293L7.17892 8.91863H8.59495C8.69916 9.26718 8.88049 9.59136 9.12701 9.87033ZM2.26873 22.79V22.3358H2.81277V22.79H2.26873ZM24.687 22.79H24.1429V22.3358H24.687V22.79ZM24.6851 20.8757H2.26873V17.7714C2.26873 17.717 2.29194 17.6604 2.34047 17.6155C2.38967 17.57 2.46028 17.5414 2.53759 17.5414H24.3865C24.4648 17.5414 24.5366 17.5702 24.587 17.6162C24.6365 17.6615 24.6608 17.7188 24.6617 17.7742C24.6617 17.7744 24.6617 17.7745 24.6617 17.7747L24.6851 20.8757Z" fill="#AEAFBC" stroke="#AEAFBC" stroke-width="0.5"></path>
  </symbol>
  <symbol fill="none" xmlns="http://www.w3.org/2000/svg" viewBox="0 0 39 33" id="bed2">
    <mask id="path-1-outside-1" maskUnits="userSpaceOnUse" x="0" y="0" width="39" height="33" fill="black">
      <rect fill="white" width="39" height="33"></rect>
      <path d="M37.9499 22.3524C38.0034 22.208 38.0034 22.0507 37.9499 21.9064L34.9324 12.8505V4.51369C34.9122 3.56579 34.4964 2.66404 33.7761 2.00568C33.0557 1.34732 32.0894 0.985946 31.0885 1.00058H8.02482C7.52884 0.992136 7.03596 1.07631 6.57433 1.2483C6.11271 1.4203 5.69138 1.67674 5.33442 2.00298C4.97746 2.32922 4.69187 2.71886 4.49394 3.14965C4.29601 3.58044 4.18963 4.04395 4.18087 4.51369V12.8505L1.06728 21.9519C1.0138 22.0962 1.0138 22.2535 1.06728 22.3978C1.02474 22.5494 1.00214 22.7053 1 22.862V31.299C1.00249 31.3934 1.02462 31.4865 1.06509 31.5728C1.10556 31.6591 1.1636 31.737 1.23589 31.8021C1.30818 31.8672 1.3933 31.9182 1.48639 31.9521C1.57948 31.986 1.67871 32.0022 1.77841 31.9998H4.91122C5.11094 32.0022 5.30363 31.9301 5.44753 31.7989C5.59144 31.6677 5.67497 31.4881 5.68001 31.299V29.142H33.3852V31.2534C33.3903 31.4426 33.4738 31.6222 33.6177 31.7533C33.7616 31.8845 33.9543 31.9567 34.154 31.9543H37.2292C37.4289 31.9567 37.6216 31.8845 37.7655 31.7533C37.9094 31.6222 37.9929 31.4426 37.9979 31.2534V22.862C38.0061 22.6909 37.99 22.5194 37.9499 22.3524ZM5.68961 4.54099C5.70224 3.97208 5.95172 3.43093 6.38371 3.03544C6.8157 2.63995 7.39521 2.42214 7.99599 2.42947H31.0596C31.6604 2.42214 32.2399 2.63995 32.6719 3.03544C33.1039 3.43093 33.3534 3.97208 33.366 4.54099V12.268H31.271L30.5599 9.65595C30.4257 9.19059 30.132 8.7807 29.7249 8.49073C29.3178 8.20075 28.8205 8.04714 28.3112 8.0541H23.3621C23.0643 8.04928 22.7684 8.10008 22.4913 8.20359C22.2142 8.3071 21.9613 8.4613 21.7471 8.65738C21.5329 8.85346 21.3617 9.08758 21.243 9.34637C21.1244 9.60515 21.0608 9.88354 21.0558 10.1656V12.268H17.971V10.1656C17.9584 9.59671 17.7089 9.05559 17.2769 8.6601C16.8449 8.2646 16.2654 8.04677 15.6646 8.0541H10.706C10.1987 8.05072 9.70438 8.20587 9.2996 8.49545C8.89481 8.78503 8.60212 9.1929 8.46686 9.65595L7.75574 12.268H5.66079L5.68961 4.54099ZM29.7142 13.4057C29.6393 13.4913 29.5453 13.5602 29.439 13.6073C29.3326 13.6545 29.2166 13.6789 29.0992 13.6787H23.3333C23.1336 13.6812 22.9409 13.609 22.797 13.4779C22.6531 13.3467 22.5696 13.1671 22.5645 12.978V10.1656C22.5658 10.0716 22.5867 9.97876 22.6261 9.89248C22.6656 9.8062 22.7227 9.7282 22.7942 9.663C22.8658 9.5978 22.9502 9.54671 23.0428 9.51268C23.1353 9.47866 23.2341 9.46244 23.3333 9.46486H28.292C28.46 9.46159 28.6242 9.51184 28.7584 9.60756C28.8926 9.70329 28.9889 9.8389 29.032 9.99269L29.8968 12.8505C29.9127 12.9494 29.9055 13.0504 29.8756 13.1463C29.8457 13.2423 29.7939 13.3308 29.7239 13.4057H29.7142ZM16.443 10.1656V12.9689C16.438 13.158 16.3545 13.3376 16.2106 13.4688C16.0667 13.5999 15.874 13.6721 15.6743 13.6697H9.90834C9.79255 13.6685 9.67841 13.6434 9.57386 13.5963C9.46932 13.5491 9.37687 13.481 9.30293 13.3966C9.23252 13.3134 9.18367 13.2157 9.16031 13.1114C9.13695 13.0071 9.1397 12.899 9.16838 12.7959L9.93717 9.98358C9.98358 9.82986 10.0821 9.69491 10.2176 9.59951C10.3531 9.5041 10.5179 9.45358 10.6867 9.45574H15.6358C15.739 9.4482 15.8427 9.46096 15.9404 9.49324C16.0381 9.52553 16.1277 9.57665 16.2035 9.64334C16.2793 9.71003 16.3398 9.79081 16.381 9.8807C16.4222 9.9706 16.4433 10.0676 16.443 10.1656ZM5.46859 13.6787H7.79417C7.87307 13.8932 7.99007 14.0932 8.14013 14.2703C8.3593 14.5258 8.63636 14.7312 8.95077 14.8715C9.26518 15.0117 9.60888 15.0831 9.95639 15.0804H15.7223C16.1906 15.0834 16.6487 14.9508 17.0352 14.7002C17.4216 14.4497 17.718 14.0933 17.8845 13.6787H21.248C21.4151 14.0947 21.7129 14.4522 22.1013 14.7029C22.4897 14.9535 22.9499 15.0853 23.4198 15.0804H29.1857C29.5347 15.0838 29.8801 15.0127 30.1961 14.8725C30.5122 14.7323 30.7909 14.5265 31.0116 14.2703C31.1581 14.091 31.2748 13.8915 31.3575 13.6787H33.6735L36.0471 20.7323C35.9575 20.7273 35.8677 20.7273 35.7781 20.7323H3.38325C3.29364 20.7273 3.2038 20.7273 3.11418 20.7323L5.46859 13.6787ZM2.58563 30.5436V29.142H4.1232V30.5436H2.58563ZM36.4411 30.5436H34.9036V29.142H36.4411V30.5436ZM36.4411 27.7312H2.61446V22.862C2.6157 22.768 2.63665 22.6752 2.67608 22.5889C2.71551 22.5026 2.77264 22.4246 2.84417 22.3594C2.91569 22.2942 3.00017 22.2431 3.09271 22.2091C3.18525 22.1751 3.28402 22.1588 3.38325 22.1612H35.6628C35.762 22.1588 35.8607 22.1751 35.9533 22.2091C36.0458 22.2431 36.1303 22.2942 36.2018 22.3594C36.2733 22.4246 36.3305 22.5026 36.3699 22.5889C36.4094 22.6752 36.4303 22.768 36.4315 22.862L36.4411 27.7312Z"></path>
    </mask>
    <path d="M37.9499 22.3524C38.0034 22.208 38.0034 22.0507 37.9499 21.9064L34.9324 12.8505V4.51369C34.9122 3.56579 34.4964 2.66404 33.7761 2.00568C33.0557 1.34732 32.0894 0.985946 31.0885 1.00058H8.02482C7.52884 0.992136 7.03596 1.07631 6.57433 1.2483C6.11271 1.4203 5.69138 1.67674 5.33442 2.00298C4.97746 2.32922 4.69187 2.71886 4.49394 3.14965C4.29601 3.58044 4.18963 4.04395 4.18087 4.51369V12.8505L1.06728 21.9519C1.0138 22.0962 1.0138 22.2535 1.06728 22.3978C1.02474 22.5494 1.00214 22.7053 1 22.862V31.299C1.00249 31.3934 1.02462 31.4865 1.06509 31.5728C1.10556 31.6591 1.1636 31.737 1.23589 31.8021C1.30818 31.8672 1.3933 31.9182 1.48639 31.9521C1.57948 31.986 1.67871 32.0022 1.77841 31.9998H4.91122C5.11094 32.0022 5.30363 31.9301 5.44753 31.7989C5.59144 31.6677 5.67497 31.4881 5.68001 31.299V29.142H33.3852V31.2534C33.3903 31.4426 33.4738 31.6222 33.6177 31.7533C33.7616 31.8845 33.9543 31.9567 34.154 31.9543H37.2292C37.4289 31.9567 37.6216 31.8845 37.7655 31.7533C37.9094 31.6222 37.9929 31.4426 37.9979 31.2534V22.862C38.0061 22.6909 37.99 22.5194 37.9499 22.3524ZM5.68961 4.54099C5.70224 3.97208 5.95172 3.43093 6.38371 3.03544C6.8157 2.63995 7.39521 2.42214 7.99599 2.42947H31.0596C31.6604 2.42214 32.2399 2.63995 32.6719 3.03544C33.1039 3.43093 33.3534 3.97208 33.366 4.54099V12.268H31.271L30.5599 9.65595C30.4257 9.19059 30.132 8.7807 29.7249 8.49073C29.3178 8.20075 28.8205 8.04714 28.3112 8.0541H23.3621C23.0643 8.04928 22.7684 8.10008 22.4913 8.20359C22.2142 8.3071 21.9613 8.4613 21.7471 8.65738C21.5329 8.85346 21.3617 9.08758 21.243 9.34637C21.1244 9.60515 21.0608 9.88354 21.0558 10.1656V12.268H17.971V10.1656C17.9584 9.59671 17.7089 9.05559 17.2769 8.6601C16.8449 8.2646 16.2654 8.04677 15.6646 8.0541H10.706C10.1987 8.05072 9.70438 8.20587 9.2996 8.49545C8.89481 8.78503 8.60212 9.1929 8.46686 9.65595L7.75574 12.268H5.66079L5.68961 4.54099ZM29.7142 13.4057C29.6393 13.4913 29.5453 13.5602 29.439 13.6073C29.3326 13.6545 29.2166 13.6789 29.0992 13.6787H23.3333C23.1336 13.6812 22.9409 13.609 22.797 13.4779C22.6531 13.3467 22.5696 13.1671 22.5645 12.978V10.1656C22.5658 10.0716 22.5867 9.97876 22.6261 9.89248C22.6656 9.8062 22.7227 9.7282 22.7942 9.663C22.8658 9.5978 22.9502 9.54671 23.0428 9.51268C23.1353 9.47866 23.2341 9.46244 23.3333 9.46486H28.292C28.46 9.46159 28.6242 9.51184 28.7584 9.60756C28.8926 9.70329 28.9889 9.8389 29.032 9.99269L29.8968 12.8505C29.9127 12.9494 29.9055 13.0504 29.8756 13.1463C29.8457 13.2423 29.7939 13.3308 29.7239 13.4057H29.7142ZM16.443 10.1656V12.9689C16.438 13.158 16.3545 13.3376 16.2106 13.4688C16.0667 13.5999 15.874 13.6721 15.6743 13.6697H9.90834C9.79255 13.6685 9.67841 13.6434 9.57386 13.5963C9.46932 13.5491 9.37687 13.481 9.30293 13.3966C9.23252 13.3134 9.18367 13.2157 9.16031 13.1114C9.13695 13.0071 9.1397 12.899 9.16838 12.7959L9.93717 9.98358C9.98358 9.82986 10.0821 9.69491 10.2176 9.59951C10.3531 9.5041 10.5179 9.45358 10.6867 9.45574H15.6358C15.739 9.4482 15.8427 9.46096 15.9404 9.49324C16.0381 9.52553 16.1277 9.57665 16.2035 9.64334C16.2793 9.71003 16.3398 9.79081 16.381 9.8807C16.4222 9.9706 16.4433 10.0676 16.443 10.1656ZM5.46859 13.6787H7.79417C7.87307 13.8932 7.99007 14.0932 8.14013 14.2703C8.3593 14.5258 8.63636 14.7312 8.95077 14.8715C9.26518 15.0117 9.60888 15.0831 9.95639 15.0804H15.7223C16.1906 15.0834 16.6487 14.9508 17.0352 14.7002C17.4216 14.4497 17.718 14.0933 17.8845 13.6787H21.248C21.4151 14.0947 21.7129 14.4522 22.1013 14.7029C22.4897 14.9535 22.9499 15.0853 23.4198 15.0804H29.1857C29.5347 15.0838 29.8801 15.0127 30.1961 14.8725C30.5122 14.7323 30.7909 14.5265 31.0116 14.2703C31.1581 14.091 31.2748 13.8915 31.3575 13.6787H33.6735L36.0471 20.7323C35.9575 20.7273 35.8677 20.7273 35.7781 20.7323H3.38325C3.29364 20.7273 3.2038 20.7273 3.11418 20.7323L5.46859 13.6787ZM2.58563 30.5436V29.142H4.1232V30.5436H2.58563ZM36.4411 30.5436H34.9036V29.142H36.4411V30.5436ZM36.4411 27.7312H2.61446V22.862C2.6157 22.768 2.63665 22.6752 2.67608 22.5889C2.71551 22.5026 2.77264 22.4246 2.84417 22.3594C2.91569 22.2942 3.00017 22.2431 3.09271 22.2091C3.18525 22.1751 3.28402 22.1588 3.38325 22.1612H35.6628C35.762 22.1588 35.8607 22.1751 35.9533 22.2091C36.0458 22.2431 36.1303 22.2942 36.2018 22.3594C36.2733 22.4246 36.3305 22.5026 36.3699 22.5889C36.4094 22.6752 36.4303 22.768 36.4315 22.862L36.4411 27.7312Z" fill="#AEAFBC"></path>
    <path d="M37.9499 22.3524C38.0034 22.208 38.0034 22.0507 37.9499 21.9064L34.9324 12.8505V4.51369C34.9122 3.56579 34.4964 2.66404 33.7761 2.00568C33.0557 1.34732 32.0894 0.985946 31.0885 1.00058H8.02482C7.52884 0.992136 7.03596 1.07631 6.57433 1.2483C6.11271 1.4203 5.69138 1.67674 5.33442 2.00298C4.97746 2.32922 4.69187 2.71886 4.49394 3.14965C4.29601 3.58044 4.18963 4.04395 4.18087 4.51369V12.8505L1.06728 21.9519C1.0138 22.0962 1.0138 22.2535 1.06728 22.3978C1.02474 22.5494 1.00214 22.7053 1 22.862V31.299C1.00249 31.3934 1.02462 31.4865 1.06509 31.5728C1.10556 31.6591 1.1636 31.737 1.23589 31.8021C1.30818 31.8672 1.3933 31.9182 1.48639 31.9521C1.57948 31.986 1.67871 32.0022 1.77841 31.9998H4.91122C5.11094 32.0022 5.30363 31.9301 5.44753 31.7989C5.59144 31.6677 5.67497 31.4881 5.68001 31.299V29.142H33.3852V31.2534C33.3903 31.4426 33.4738 31.6222 33.6177 31.7533C33.7616 31.8845 33.9543 31.9567 34.154 31.9543H37.2292C37.4289 31.9567 37.6216 31.8845 37.7655 31.7533C37.9094 31.6222 37.9929 31.4426 37.9979 31.2534V22.862C38.0061 22.6909 37.99 22.5194 37.9499 22.3524ZM5.68961 4.54099C5.70224 3.97208 5.95172 3.43093 6.38371 3.03544C6.8157 2.63995 7.39521 2.42214 7.99599 2.42947H31.0596C31.6604 2.42214 32.2399 2.63995 32.6719 3.03544C33.1039 3.43093 33.3534 3.97208 33.366 4.54099V12.268H31.271L30.5599 9.65595C30.4257 9.19059 30.132 8.7807 29.7249 8.49073C29.3178 8.20075 28.8205 8.04714 28.3112 8.0541H23.3621C23.0643 8.04928 22.7684 8.10008 22.4913 8.20359C22.2142 8.3071 21.9613 8.4613 21.7471 8.65738C21.5329 8.85346 21.3617 9.08758 21.243 9.34637C21.1244 9.60515 21.0608 9.88354 21.0558 10.1656V12.268H17.971V10.1656C17.9584 9.59671 17.7089 9.05559 17.2769 8.6601C16.8449 8.2646 16.2654 8.04677 15.6646 8.0541H10.706C10.1987 8.05072 9.70438 8.20587 9.2996 8.49545C8.89481 8.78503 8.60212 9.1929 8.46686 9.65595L7.75574 12.268H5.66079L5.68961 4.54099ZM29.7142 13.4057C29.6393 13.4913 29.5453 13.5602 29.439 13.6073C29.3326 13.6545 29.2166 13.6789 29.0992 13.6787H23.3333C23.1336 13.6812 22.9409 13.609 22.797 13.4779C22.6531 13.3467 22.5696 13.1671 22.5645 12.978V10.1656C22.5658 10.0716 22.5867 9.97876 22.6261 9.89248C22.6656 9.8062 22.7227 9.7282 22.7942 9.663C22.8658 9.5978 22.9502 9.54671 23.0428 9.51268C23.1353 9.47866 23.2341 9.46244 23.3333 9.46486H28.292C28.46 9.46159 28.6242 9.51184 28.7584 9.60756C28.8926 9.70329 28.9889 9.8389 29.032 9.99269L29.8968 12.8505C29.9127 12.9494 29.9055 13.0504 29.8756 13.1463C29.8457 13.2423 29.7939 13.3308 29.7239 13.4057H29.7142ZM16.443 10.1656V12.9689C16.438 13.158 16.3545 13.3376 16.2106 13.4688C16.0667 13.5999 15.874 13.6721 15.6743 13.6697H9.90834C9.79255 13.6685 9.67841 13.6434 9.57386 13.5963C9.46932 13.5491 9.37687 13.481 9.30293 13.3966C9.23252 13.3134 9.18367 13.2157 9.16031 13.1114C9.13695 13.0071 9.1397 12.899 9.16838 12.7959L9.93717 9.98358C9.98358 9.82986 10.0821 9.69491 10.2176 9.59951C10.3531 9.5041 10.5179 9.45358 10.6867 9.45574H15.6358C15.739 9.4482 15.8427 9.46096 15.9404 9.49324C16.0381 9.52553 16.1277 9.57665 16.2035 9.64334C16.2793 9.71003 16.3398 9.79081 16.381 9.8807C16.4222 9.9706 16.4433 10.0676 16.443 10.1656ZM5.46859 13.6787H7.79417C7.87307 13.8932 7.99007 14.0932 8.14013 14.2703C8.3593 14.5258 8.63636 14.7312 8.95077 14.8715C9.26518 15.0117 9.60888 15.0831 9.95639 15.0804H15.7223C16.1906 15.0834 16.6487 14.9508 17.0352 14.7002C17.4216 14.4497 17.718 14.0933 17.8845 13.6787H21.248C21.4151 14.0947 21.7129 14.4522 22.1013 14.7029C22.4897 14.9535 22.9499 15.0853 23.4198 15.0804H29.1857C29.5347 15.0838 29.8801 15.0127 30.1961 14.8725C30.5122 14.7323 30.7909 14.5265 31.0116 14.2703C31.1581 14.091 31.2748 13.8915 31.3575 13.6787H33.6735L36.0471 20.7323C35.9575 20.7273 35.8677 20.7273 35.7781 20.7323H3.38325C3.29364 20.7273 3.2038 20.7273 3.11418 20.7323L5.46859 13.6787ZM2.58563 30.5436V29.142H4.1232V30.5436H2.58563ZM36.4411 30.5436H34.9036V29.142H36.4411V30.5436ZM36.4411 27.7312H2.61446V22.862C2.6157 22.768 2.63665 22.6752 2.67608 22.5889C2.71551 22.5026 2.77264 22.4246 2.84417 22.3594C2.91569 22.2942 3.00017 22.2431 3.09271 22.2091C3.18525 22.1751 3.28402 22.1588 3.38325 22.1612H35.6628C35.762 22.1588 35.8607 22.1751 35.9533 22.2091C36.0458 22.2431 36.1303 22.2942 36.2018 22.3594C36.2733 22.4246 36.3305 22.5026 36.3699 22.5889C36.4094 22.6752 36.4303 22.768 36.4315 22.862L36.4411 27.7312Z" stroke="#AEAFBC" mask="url(#path-1-outside-1)"></path>
  </symbol>
  <symbol fill="none" xmlns="http://www.w3.org/2000/svg" viewBox="0 0 15 23" id="local">
    <path d="M7.20177 0C3.22449 0 0 3.22403 0 7.20177C0 10.5244 5.0267 19.6525 6.68106 22.5664C6.91063 22.9706 7.49291 22.9706 7.72247 22.5664C9.37683 19.6525 14.4035 10.5244 14.4035 7.20177C14.4035 3.22403 11.1788 0 7.20177 0ZM7.20177 9.76868C5.56732 9.76868 4.24233 8.44368 4.24233 6.80923C4.24233 5.17433 5.56732 3.84933 7.20177 3.84933C8.83621 3.84933 10.1612 5.17433 10.1612 6.80923C10.1612 8.44368 8.83621 9.76868 7.20177 9.76868Z" fill="#006BBE"></path>
  </symbol>
  <symbol fill="none" xmlns="http://www.w3.org/2000/svg" viewBox="0 0 32 8" id="tick">
    <path d="M3.96875 7.53711C2.85156 7.53711 1.92057 7.19336 1.17578 6.50586C0.43099 5.81836 0.0585938 4.97331 0.0585938 3.9707C0.0585938 2.93945 0.438151 2.0944 1.19727 1.43555C1.9707 0.776693 2.93034 0.447266 4.07617 0.447266C5.23633 0.447266 6.18164 0.783854 6.91211 1.45703C7.6569 2.11589 8.0293 2.95378 8.0293 3.9707C8.0293 5.01628 7.64974 5.87565 6.89062 6.54883C6.14583 7.20768 5.17188 7.53711 3.96875 7.53711ZM15.9141 7.53711C14.7969 7.53711 13.8659 7.19336 13.1211 6.50586C12.3763 5.81836 12.0039 4.97331 12.0039 3.9707C12.0039 2.93945 12.3835 2.0944 13.1426 1.43555C13.916 0.776693 14.8757 0.447266 16.0215 0.447266C17.1816 0.447266 18.127 0.783854 18.8574 1.45703C19.6022 2.11589 19.9746 2.95378 19.9746 3.9707C19.9746 5.01628 19.5951 5.87565 18.8359 6.54883C18.0911 7.20768 17.1172 7.53711 15.9141 7.53711ZM27.8594 7.53711C26.7422 7.53711 25.8112 7.19336 25.0664 6.50586C24.3216 5.81836 23.9492 4.97331 23.9492 3.9707C23.9492 2.93945 24.3288 2.0944 25.0879 1.43555C25.8613 0.776693 26.821 0.447266 27.9668 0.447266C29.127 0.447266 30.0723 0.783854 30.8027 1.45703C31.5475 2.11589 31.9199 2.95378 31.9199 3.9707C31.9199 5.01628 31.5404 5.87565 30.7812 6.54883C30.0365 7.20768 29.0625 7.53711 27.8594 7.53711Z" fill="#AEAFBC"></path>
  </symbol>
</svg>